<svg xmlns="http://www.w3.org/2000/svg" width="64.078" height="64.077" viewBox="0 0 64.078 64.077">
    <g id="Group_223" data-name="Group 223" transform="translate(-146.07 -170.07)">
        <path id="Path_62" data-name="Path 62" d="M0,32.036C0,8.007,8.007,0,32.036,0S64.078,8.007,64.078,32.036,56.07,64.077,32.036,64.077,0,56.07,0,32.036" transform="translate(146.07 170.07)" fill="#01838f"/>
        <path id="Path_63" data-name="Path 63" d="M51.09,27.819a5.123,5.123,0,1,1,5.116,5.116A5.123,5.123,0,0,1,51.09,27.819Z" transform="translate(128.025 162.056)" fill="#fff"/>
        <path id="Path_64" data-name="Path 64" d="M72.2,26.366a3.648,3.648,0,0,1-.278,1.4L63.512,48.007V51.39a7.315,7.315,0,1,1-14.624,0V38.28A2.982,2.982,0,0,1,51.87,35.3h8.99l4.269-10.336a3.667,3.667,0,0,1,7.057,1.4Z" transform="translate(128.804 162.054)" fill="#fff"/>
        <path id="Path_65" data-name="Path 65" d="M38.366,35A4.4,4.4,0,1,0,33.975,39.4,4.4,4.4,0,0,0,38.366,35Z" transform="translate(135.627 159.262)" fill="#ededed"/>
        <path id="Path_66" data-name="Path 66" d="M14.14,33.769a3.117,3.117,0,0,0,.239,1.2l7.192,17.36v2.9a6.274,6.274,0,0,0,12.548,0V43.988A2.587,2.587,0,0,0,31.532,41.4H23.861l-3.667-8.835a3.15,3.15,0,0,0-6.054,1.2Z" transform="translate(141.076 159.25)" fill="#ededed"/>
    </g>
</svg>