<svg xmlns="http://www.w3.org/2000/svg" width="236" height="28.015" viewBox="0 0 236 28.015">
    <g id="Слой_2" data-name="Слой 2" transform="translate(1.264 -2.611)">
        <g id="Слой_1" data-name="Слой 1" transform="translate(-1.264 2.611)">
            <path id="Path_37" data-name="Path 37" d="M145.311,19.7h-8.493v5.643h8.206v3.166h-8.206v8.173h-3.3V16.53h11.8Z" transform="translate(-87.864 -14.422)" fill="#2c2c2c"/>
            <path id="Path_38" data-name="Path 38" d="M187.835,33.228h3.107V47.615h-3.107V45.544a5.818,5.818,0,0,1-5.04,2.447,6.755,6.755,0,0,1-5.069-2.2,7.929,7.929,0,0,1,0-10.752,6.774,6.774,0,0,1,5.066-2.187,5.827,5.827,0,0,1,5.04,2.418Zm-7.8,10.488a4.7,4.7,0,0,0,6.507,0,4.844,4.844,0,0,0,0-6.6,4.7,4.7,0,0,0-6.507,0,4.853,4.853,0,0,0,0,6.6Z" transform="translate(-116.081 -25.359)" fill="#2c2c2c"/>
            <path id="Path_39" data-name="Path 39" d="M238.219,47.991a7.381,7.381,0,0,1-5.386-2.187,7.648,7.648,0,0,1,0-10.769,7.738,7.738,0,0,1,10.782,0,7.305,7.305,0,0,1,2.2,5.386,7.5,7.5,0,0,1-7.586,7.586Zm-3.189-4.317a4.584,4.584,0,0,0,6.389,0,4.732,4.732,0,0,0,0-6.507,4.591,4.591,0,0,0-6.389,0,4.732,4.732,0,0,0,0,6.507Z" transform="translate(-152.935 -25.359)" fill="#2c2c2c"/>
            <path id="Path_40" data-name="Path 40" d="M285.26,34.923V13.91h3.107V34.923Z" transform="translate(-189.558 -12.666)" fill="#2c2c2c"/>
            <path id="Path_41" data-name="Path 41" d="M339.811,19.7h-8.493v5.643h8.2v3.166h-8.2v8.173H328V16.53h11.8Z" transform="translate(-218.201 -14.422)" fill="#2c2c2c"/>
            <path id="Path_42" data-name="Path 42" d="M381.727,34h3.11V48.387h-3.11V46.533a4.9,4.9,0,0,1-4.462,2.216,5.307,5.307,0,0,1-3.991-1.557,6.007,6.007,0,0,1-1.524-4.347V34h3.107v8.516a3.363,3.363,0,0,0,.864,2.477,3.2,3.2,0,0,0,2.378.861,3.559,3.559,0,0,0,2.639-1.019,4.34,4.34,0,0,0,.989-3.123Z" transform="translate(-247.522 -26.13)" fill="#2d1616"/>
            <path id="Path_43" data-name="Path 43" d="M432.2,33.228h3.107V53.374H432.2v-7.8a5.848,5.848,0,0,1-5.04,2.418,6.775,6.775,0,0,1-5.066-2.187,7.933,7.933,0,0,1,0-10.752,6.755,6.755,0,0,1,5.066-2.2A5.8,5.8,0,0,1,432.2,35.3ZM424.4,43.717a4.693,4.693,0,0,0,6.5,0,4.844,4.844,0,0,0,0-6.6,4.693,4.693,0,0,0-6.5,0,4.844,4.844,0,0,0,0,6.6Z" transform="translate(-279.853 -25.359)" fill="#2c2c2c"/>
            <path id="Path_44" data-name="Path 44" d="M487.2,33.228h3.11V47.615H487.2V45.544a5.815,5.815,0,0,1-5.036,2.447,6.745,6.745,0,0,1-5.066-2.2,7.929,7.929,0,0,1,0-10.752,6.765,6.765,0,0,1,5.066-2.187,5.85,5.85,0,0,1,5.036,2.418Zm-7.8,10.488a4.693,4.693,0,0,0,6.5,0,4.844,4.844,0,0,0,0-6.6,4.693,4.693,0,0,0-6.5,0,4.844,4.844,0,0,0,0,6.6Z" transform="translate(-316.713 -25.359)" fill="#2c2c2c"/>
            <path id="Path_45" data-name="Path 45" d="M535.537,35.878A4.4,4.4,0,0,1,539.97,33.2v3.367a4.617,4.617,0,0,0-3.11.854A3.672,3.672,0,0,0,535.54,40.6v7.256h-3.11V33.464h3.11Z" transform="translate(-355.207 -25.594)" fill="#2c2c2c"/>
            <path id="Path_46" data-name="Path 46" d="M565.415,47.992a7.378,7.378,0,0,1-5.383-2.187,7.648,7.648,0,0,1,0-10.769,7.734,7.734,0,0,1,10.778,0,7.571,7.571,0,0,1-5.4,12.955Zm-3.2-4.317a4.588,4.588,0,0,0,6.392,0,4.731,4.731,0,0,0,0-6.507,4.6,4.6,0,0,0-6.392,0,4.74,4.74,0,0,0,0,6.507Z" transform="translate(-372.219 -25.36)" fill="#2c2c2c"/>
            <path id="Path_47" data-name="Path 47" d="M612.46,34.923V13.91h3.107V34.923Z" transform="translate(-408.841 -12.666)" fill="#2c2c2c"/>
            <path id="Path_48" data-name="Path 48" d="M642.542,33.228h3.107V47.615h-3.107V45.544a5.815,5.815,0,0,1-5.036,2.447,6.758,6.758,0,0,1-5.069-2.2,7.929,7.929,0,0,1,0-10.752,6.778,6.778,0,0,1,5.069-2.187,5.845,5.845,0,0,1,5.036,2.418Zm-7.8,10.488a4.693,4.693,0,0,0,6.5,0,4.844,4.844,0,0,0,0-6.6,4.693,4.693,0,0,0-6.5,0,4.844,4.844,0,0,0,0,6.6Z" transform="translate(-420.82 -25.359)" fill="#2c2c2c"/>
            <path id="Path_49" data-name="Path 49" d="M690.887,35.878A4.4,4.4,0,0,1,695.32,33.2v3.367a4.618,4.618,0,0,0-3.11.854A3.672,3.672,0,0,0,690.89,40.6v7.256h-3.11V33.464h3.11Z" transform="translate(-459.32 -25.594)" fill="#2c2c2c"/>
            <g id="Group_271" data-name="Group 271">
                <path id="Path_50" data-name="Path 50" d="M51.09,26.139a3.445,3.445,0,1,1,3.44,3.44A3.445,3.445,0,0,1,51.09,26.139Z" transform="translate(-35.019 -22.69)" fill="#06727d"/>
                <path id="Path_51" data-name="Path 51" d="M64.562,25.163a2.453,2.453,0,0,1-.187.944L58.721,39.717v2.275a4.919,4.919,0,1,1-9.834,0V33.175a2.005,2.005,0,0,1,2.005-2.005h6.046l2.871-6.95a2.466,2.466,0,0,1,4.745.944Z" transform="translate(-33.773 -22.693)" fill="#06727d"/>
                <path id="Path_52" data-name="Path 52" d="M35.485,33.562a2.958,2.958,0,1,0-2.953,2.953A2.958,2.958,0,0,0,35.485,33.562Z" transform="translate(-22.859 -27.16)" fill="#06727d"/>
                <path id="Path_53" data-name="Path 53" d="M14.14,32.742a2.1,2.1,0,0,0,.161.809l4.837,11.674v1.953a4.219,4.219,0,1,0,8.438,0V39.615a1.74,1.74,0,0,0-1.74-1.74H20.677l-2.466-5.941a2.118,2.118,0,0,0-4.071.809Z" transform="translate(-14.14 -27.18)" fill="#06727d"/>
            </g>
        </g>
    </g>
</svg>
