<svg xmlns="http://www.w3.org/2000/svg" width="327" height="41.459" viewBox="0 0 327 41.459">
  <g id="Слой_1" data-name="Слой 1" transform="translate(0 -5.292)">
    <path id="Path_37" data-name="Path 37" d="M149.97,20.947H138.121v7.873H149.57v4.417H138.121v11.4h-4.6V16.53h16.464Z" transform="translate(-72.081 -5.924)" fill="#fff"/>
    <path id="Path_38" data-name="Path 38" d="M192.661,33.378H197V53.45h-4.335V50.56a8.117,8.117,0,0,1-7.031,3.414,9.424,9.424,0,0,1-7.072-3.074,10.431,10.431,0,0,1-2.931-7.487,10.436,10.436,0,0,1,2.931-7.514,9.452,9.452,0,0,1,7.068-3.051,8.13,8.13,0,0,1,7.031,3.373ZM181.778,48.011a6.553,6.553,0,0,0,9.079,0,6.759,6.759,0,0,0,0-9.2,6.553,6.553,0,0,0-9.079,0,6.771,6.771,0,0,0,0,9.2Z" transform="translate(-94.81 -14.733)" fill="#fff"/>
    <path id="Path_39" data-name="Path 39" d="M241.223,53.975a10.3,10.3,0,0,1-7.514-3.051,10.123,10.123,0,0,1-3.092-7.51,10.155,10.155,0,0,1,3.092-7.514,10.8,10.8,0,0,1,15.042,0,10.192,10.192,0,0,1,3.074,7.514A10.459,10.459,0,0,1,241.242,54Zm-4.45-6.023a6.4,6.4,0,0,0,8.913,0,6.6,6.6,0,0,0,0-9.079,6.405,6.405,0,0,0-8.913,0,6.6,6.6,0,0,0,0,9.079Z" transform="translate(-124.498 -14.734)" fill="#fff"/>
    <path id="Path_40" data-name="Path 40" d="M285.26,43.226V13.91h4.335V43.226Z" transform="translate(-153.998 -4.509)" fill="#fff"/>
    <path id="Path_41" data-name="Path 41" d="M344.478,20.947H332.629v7.873h11.444v4.417H332.629v11.4H328V16.53h16.469Z" transform="translate(-177.071 -5.924)" fill="#fff"/>
    <path id="Path_42" data-name="Path 42" d="M385.67,34h4.339V54.072H385.67V51.486a6.834,6.834,0,0,1-6.226,3.092,7.4,7.4,0,0,1-5.568-2.172,8.381,8.381,0,0,1-2.126-6.065V34h4.335V45.881a4.692,4.692,0,0,0,1.206,3.456,4.464,4.464,0,0,0,3.318,1.2,4.965,4.965,0,0,0,3.681-1.422,6.055,6.055,0,0,0,1.38-4.358Z" transform="translate(-200.69 -15.355)" fill="#fff"/>
    <path id="Path_43" data-name="Path 43" d="M437.022,33.378h4.335V61.484h-4.335V50.6a8.159,8.159,0,0,1-7.031,3.373,9.451,9.451,0,0,1-7.068-3.051A10.427,10.427,0,0,1,420,43.414a10.441,10.441,0,0,1,2.931-7.491A9.424,9.424,0,0,1,430,32.849a8.1,8.1,0,0,1,7.031,3.414ZM426.148,48.011a6.548,6.548,0,0,0,9.074,0,6.758,6.758,0,0,0,0-9.2,6.548,6.548,0,0,0-9.074,0,6.759,6.759,0,0,0,0,9.2Z" transform="translate(-226.734 -14.733)" fill="#fff"/>
    <path id="Path_44" data-name="Path 44" d="M492.022,33.378h4.339V53.45h-4.339V50.56A8.113,8.113,0,0,1,485,53.975a9.41,9.41,0,0,1-7.068-3.074A10.432,10.432,0,0,1,475,43.414a10.436,10.436,0,0,1,2.931-7.514A9.438,9.438,0,0,1,485,32.849a8.162,8.162,0,0,1,7.026,3.373ZM481.139,48.011a6.548,6.548,0,0,0,9.074,0,6.758,6.758,0,0,0,0-9.2,6.548,6.548,0,0,0-9.074,0,6.758,6.758,0,0,0,0,9.2Z" transform="translate(-256.426 -14.733)" fill="#fff"/>
    <path id="Path_45" data-name="Path 45" d="M536.765,36.936q1.643-3.736,6.184-3.736v4.7a6.442,6.442,0,0,0-4.339,1.192q-1.841,1.344-1.841,4.436V53.649H532.43V33.568h4.339Z" transform="translate(-287.433 -14.923)" fill="#fff"/>
    <path id="Path_46" data-name="Path 46" d="M568.419,53.975a10.294,10.294,0,0,1-7.51-3.051,10.124,10.124,0,0,1-3.092-7.51,10.156,10.156,0,0,1,3.092-7.514,10.791,10.791,0,0,1,15.038,0,10.174,10.174,0,0,1,3.074,7.514,10.165,10.165,0,0,1-3.074,7.51A10.271,10.271,0,0,1,568.419,53.975Zm-4.459-6.023a6.4,6.4,0,0,0,8.918,0,6.6,6.6,0,0,0,0-9.079,6.414,6.414,0,0,0-8.918,0,6.614,6.614,0,0,0,0,9.079Z" transform="translate(-301.137 -14.734)" fill="#fff"/>
    <path id="Path_47" data-name="Path 47" d="M612.46,43.226V13.91h4.335V43.226Z" transform="translate(-330.637 -4.509)" fill="#fff"/>
    <path id="Path_48" data-name="Path 48" d="M647.367,33.378H651.7V53.45h-4.335V50.56a8.113,8.113,0,0,1-7.026,3.414,9.428,9.428,0,0,1-7.073-3.074,10.45,10.45,0,0,1-2.931-7.487,10.455,10.455,0,0,1,2.931-7.514,9.456,9.456,0,0,1,7.073-3.051,8.155,8.155,0,0,1,7.026,3.373ZM636.484,48.011a6.548,6.548,0,0,0,9.074,0,6.758,6.758,0,0,0,0-9.2,6.548,6.548,0,0,0-9.074,0,6.758,6.758,0,0,0,0,9.2Z" transform="translate(-340.286 -14.733)" fill="#fff"/>
    <path id="Path_49" data-name="Path 49" d="M692.115,36.936Q693.757,33.2,698.3,33.2v4.7a6.442,6.442,0,0,0-4.339,1.192q-1.841,1.344-1.841,4.436V53.649H687.78V33.568h4.339Z" transform="translate(-371.299 -14.923)" fill="#fff"/>
    <path id="Path_50" data-name="Path 50" d="M51.09,27.8a5.1,5.1,0,1,1,5.094,5.094A5.1,5.1,0,0,1,51.09,27.8Z" transform="translate(-27.295 -17.398)" fill="#fff"/>
    <path id="Path_51" data-name="Path 51" d="M72.1,26.35a3.632,3.632,0,0,1-.277,1.4L63.448,47.9v3.368a7.283,7.283,0,1,1-14.56,0V38.212a2.969,2.969,0,0,1,2.969-2.969h8.951l4.25-10.291a3.651,3.651,0,0,1,7.026,1.4Z" transform="translate(-26.51 -17.4)" fill="#fff"/>
    <path id="Path_52" data-name="Path 52" d="M38.328,34.985a4.379,4.379,0,1,0-4.373,4.373A4.379,4.379,0,0,0,38.328,34.985Z" transform="translate(-19.633 -20.214)" fill="#ededed"/>
    <path id="Path_53" data-name="Path 53" d="M14.14,33.755a3.1,3.1,0,0,0,.238,1.2l7.161,17.284v2.891a6.247,6.247,0,0,0,12.493,0V43.93a2.576,2.576,0,0,0-2.576-2.576H23.819l-3.651-8.8a3.136,3.136,0,0,0-6.028,1.2Z" transform="translate(-14.14 -20.226)" fill="#ededed"/>
  </g>
</svg>
