<svg xmlns="http://www.w3.org/2000/svg" width="190.344" height="107.265" viewBox="0 0 190.344 107.265">
    <g id="Group_234" data-name="Group 234" transform="translate(-99.656 -494.735)">
        <g id="Group_233" data-name="Group 233" transform="translate(0 -32)">
            <path id="Path_71" data-name="Path 71" d="M51.09,31.36a8.659,8.659,0,1,1,8.648,8.648A8.659,8.659,0,0,1,51.09,31.36Z" transform="translate(138.112 504.045)" fill="#ededed"/>
            <path id="Path_72" data-name="Path 72" d="M88.292,28.9a6.166,6.166,0,0,1-.47,2.372L73.61,65.48V71.2a12.365,12.365,0,1,1-24.719,0V49.037A5.04,5.04,0,0,1,53.93,44h15.2l7.216-17.471A6.2,6.2,0,0,1,88.27,28.9Z" transform="translate(137.905 504.046)" fill="#ededed"/>
            <path id="Path_73" data-name="Path 73" d="M44.439,38.045a7.434,7.434,0,1,0-7.423,7.423,7.434,7.434,0,0,0,7.423-7.423Z" transform="translate(136.105 504.783)" fill="#ededed"/>
            <path id="Path_74" data-name="Path 74" d="M14.14,35.932a5.27,5.27,0,0,0,.4,2.034L26.7,67.309v4.909a10.6,10.6,0,0,0,21.21,0V53.206a4.373,4.373,0,0,0-4.373-4.373H30.572L24.373,33.9A5.324,5.324,0,0,0,14.14,35.932Z" transform="translate(134.663 504.786)" fill="#ededed"/>
        </g>
        <path id="Path_75" data-name="Path 75" d="M145.311,19.7h-8.493v5.643h8.206v3.166h-8.206v8.173h-3.3V16.53h11.8Z" transform="translate(-33.864 559.563)" fill="#ededed"/>
        <path id="Path_76" data-name="Path 76" d="M187.835,33.228h3.107V47.615h-3.107V45.544a5.818,5.818,0,0,1-5.04,2.447,6.755,6.755,0,0,1-5.069-2.2,7.929,7.929,0,0,1,0-10.752,6.774,6.774,0,0,1,5.066-2.187,5.827,5.827,0,0,1,5.04,2.418Zm-7.8,10.488a4.7,4.7,0,0,0,6.507,0,4.844,4.844,0,0,0,0-6.6,4.7,4.7,0,0,0-6.507,0,4.853,4.853,0,0,0,0,6.6Z" transform="translate(-62.081 548.626)" fill="#ededed"/>
        <path id="Path_77" data-name="Path 77" d="M238.219,47.991a7.381,7.381,0,0,1-5.386-2.187,7.648,7.648,0,0,1,0-10.769,7.738,7.738,0,0,1,10.782,0,7.305,7.305,0,0,1,2.2,5.386,7.5,7.5,0,0,1-7.586,7.586Zm-3.189-4.317a4.584,4.584,0,0,0,6.389,0,4.732,4.732,0,0,0,0-6.507,4.591,4.591,0,0,0-6.389,0,4.732,4.732,0,0,0,0,6.507Z" transform="translate(-98.936 548.626)" fill="#ededed"/>
        <path id="Path_78" data-name="Path 78" d="M285.26,34.923V13.91h3.107V34.923Z" transform="translate(-135.558 561.319)" fill="#ededed"/>
        <path id="Path_79" data-name="Path 79" d="M339.811,19.7h-8.493v5.643h8.2v3.166h-8.2v8.173H328V16.53h11.8Z" transform="translate(-164.201 559.563)" fill="#ededed"/>
        <path id="Path_80" data-name="Path 80" d="M381.727,34h3.11V48.387h-3.11V46.533a4.9,4.9,0,0,1-4.462,2.216,5.307,5.307,0,0,1-3.991-1.557,6.007,6.007,0,0,1-1.524-4.347V34h3.107v8.516a3.363,3.363,0,0,0,.864,2.477,3.2,3.2,0,0,0,2.378.861,3.559,3.559,0,0,0,2.639-1.019,4.34,4.34,0,0,0,.989-3.123Z" transform="translate(-193.521 547.855)" fill="#ededed"/>
        <path id="Path_81" data-name="Path 81" d="M432.2,33.228h3.107V53.374H432.2v-7.8a5.848,5.848,0,0,1-5.04,2.418,6.775,6.775,0,0,1-5.066-2.187,7.933,7.933,0,0,1,0-10.752,6.755,6.755,0,0,1,5.066-2.2A5.8,5.8,0,0,1,432.2,35.3ZM424.4,43.717a4.693,4.693,0,0,0,6.5,0,4.844,4.844,0,0,0,0-6.6,4.693,4.693,0,0,0-6.5,0,4.844,4.844,0,0,0,0,6.6Z" transform="translate(-225.854 548.626)" fill="#ededed"/>
        <path id="Path_82" data-name="Path 82" d="M487.2,33.228h3.11V47.615H487.2V45.544a5.815,5.815,0,0,1-5.036,2.447,6.745,6.745,0,0,1-5.066-2.2,7.929,7.929,0,0,1,0-10.752,6.765,6.765,0,0,1,5.066-2.187,5.85,5.85,0,0,1,5.036,2.418Zm-7.8,10.488a4.693,4.693,0,0,0,6.5,0,4.844,4.844,0,0,0,0-6.6,4.693,4.693,0,0,0-6.5,0,4.844,4.844,0,0,0,0,6.6Z" transform="translate(-262.713 548.626)" fill="#ededed"/>
        <path id="Path_83" data-name="Path 83" d="M535.537,35.878A4.4,4.4,0,0,1,539.97,33.2v3.367a4.617,4.617,0,0,0-3.11.854A3.672,3.672,0,0,0,535.54,40.6v7.256h-3.11V33.464h3.11Z" transform="translate(-301.207 548.391)" fill="#ededed"/>
        <path id="Path_84" data-name="Path 84" d="M565.415,47.992a7.378,7.378,0,0,1-5.383-2.187,7.648,7.648,0,0,1,0-10.769,7.734,7.734,0,0,1,10.778,0,7.571,7.571,0,0,1-5.4,12.955Zm-3.2-4.317a4.588,4.588,0,0,0,6.392,0,4.731,4.731,0,0,0,0-6.507,4.6,4.6,0,0,0-6.392,0,4.74,4.74,0,0,0,0,6.507Z" transform="translate(-318.219 548.625)" fill="#ededed"/>
        <path id="Path_85" data-name="Path 85" d="M612.46,34.923V13.91h3.107V34.923Z" transform="translate(-354.842 561.319)" fill="#ededed"/>
        <path id="Path_86" data-name="Path 86" d="M642.542,33.228h3.107V47.615h-3.107V45.544a5.815,5.815,0,0,1-5.036,2.447,6.758,6.758,0,0,1-5.069-2.2,7.929,7.929,0,0,1,0-10.752,6.778,6.778,0,0,1,5.069-2.187,5.845,5.845,0,0,1,5.036,2.418Zm-7.8,10.488a4.693,4.693,0,0,0,6.5,0,4.844,4.844,0,0,0,0-6.6,4.693,4.693,0,0,0-6.5,0,4.844,4.844,0,0,0,0,6.6Z" transform="translate(-366.82 548.626)" fill="#ededed"/>
        <path id="Path_87" data-name="Path 87" d="M690.887,35.878A4.4,4.4,0,0,1,695.32,33.2v3.367a4.618,4.618,0,0,0-3.11.854A3.672,3.672,0,0,0,690.89,40.6v7.256h-3.11V33.464h3.11Z" transform="translate(-405.32 548.391)" fill="#ededed"/>
    </g>
</svg>