<svg xmlns="http://www.w3.org/2000/svg" width="327" height="45.587" viewBox="0 0 327 45.587">
  <g id="Group_270" data-name="Group 270" transform="translate(-193.954 -198.673)">
    <g id="Group_266" data-name="Group 266" transform="translate(193.954 198.673)">
      <g id="Group_265" data-name="Group 265">
        <path id="Path_111" data-name="Path 111" d="M193.954,221.466c0-17.095,5.7-22.793,22.793-22.793s22.793,5.7,22.793,22.793-5.7,22.793-22.793,22.793-22.793-5.7-22.793-22.793" transform="translate(-193.954 -198.673)" fill="#06727d"/>
      </g>
    </g>
    <g id="Group_267" data-name="Group 267" transform="translate(255.378 206.541)">
      <path id="Path_112" data-name="Path 112" d="M283.835,213.935H271.987v7.871h11.446v4.418H271.987v11.406h-4.618V209.517h16.466Z" transform="translate(-267.369 -208.312)" fill="#2c2c2c"/>
      <path id="Path_113" data-name="Path 113" d="M307.581,219.015h4.337V239.1h-4.337V236.2a8.126,8.126,0,0,1-7.028,3.414,9.416,9.416,0,0,1-7.068-3.072,11.059,11.059,0,0,1,0-15,9.445,9.445,0,0,1,7.068-3.052,8.159,8.159,0,0,1,7.028,3.373ZM296.7,233.654a6.549,6.549,0,0,0,9.076,0,6.754,6.754,0,0,0,0-9.2,6.549,6.549,0,0,0-9.076,0,6.754,6.754,0,0,0,0,9.2Z" transform="translate(-271.156 -209.778)" fill="#2c2c2c"/>
      <path id="Path_114" data-name="Path 114" d="M331.394,239.617a10.293,10.293,0,0,1-7.51-3.052,10.665,10.665,0,0,1,0-15.02,10.79,10.79,0,0,1,15.04,0,10.563,10.563,0,0,1-7.53,18.072Zm-4.458-6.024a6.4,6.4,0,0,0,8.916,0,6.6,6.6,0,0,0,0-9.076,6.4,6.4,0,0,0-8.916,0,6.6,6.6,0,0,0,0,9.076Z" transform="translate(-276.094 -209.778)" fill="#2c2c2c"/>
      <path id="Path_115" data-name="Path 115" d="M350.84,237.394V208.077h4.337v29.317Z" transform="translate(-281.002 -208.077)" fill="#2c2c2c"/>
      <path id="Path_116" data-name="Path 116" d="M390.825,213.935H378.977v7.871h11.446v4.418H378.977v11.406h-4.618V209.517h16.466Z" transform="translate(-284.843 -208.312)" fill="#2c2c2c"/>
      <path id="Path_117" data-name="Path 117" d="M412.343,219.117h4.337V239.2h-4.337v-2.57a6.839,6.839,0,0,1-6.226,3.092,7.4,7.4,0,0,1-5.582-2.209,8.373,8.373,0,0,1-2.128-6.064V219.117h4.337V231a4.674,4.674,0,0,0,1.2,3.454,4.45,4.45,0,0,0,3.293,1.2,4.955,4.955,0,0,0,3.694-1.426,5.98,5.98,0,0,0,1.406-4.357Z" transform="translate(-288.771 -209.88)" fill="#2c2c2c"/>
      <path id="Path_118" data-name="Path 118" d="M441.979,219.015h4.336v28.112h-4.336V236.244a8.16,8.16,0,0,1-7.029,3.373,9.446,9.446,0,0,1-7.068-3.052,11.059,11.059,0,0,1,0-15,9.417,9.417,0,0,1,7.068-3.072,8.126,8.126,0,0,1,7.029,3.414ZM431.1,233.654a6.548,6.548,0,0,0,9.075,0,6.751,6.751,0,0,0,0-9.2,6.548,6.548,0,0,0-9.075,0,6.754,6.754,0,0,0,0,9.2Z" transform="translate(-293.106 -209.778)" fill="#2c2c2c"/>
      <path id="Path_119" data-name="Path 119" d="M472.219,219.015h4.336V239.1h-4.336V236.2a8.125,8.125,0,0,1-7.029,3.414,9.417,9.417,0,0,1-7.068-3.072,11.059,11.059,0,0,1,0-15,9.446,9.446,0,0,1,7.068-3.052,8.159,8.159,0,0,1,7.029,3.373Zm-10.883,14.638a6.549,6.549,0,0,0,9.076,0,6.754,6.754,0,0,0,0-9.2,6.549,6.549,0,0,0-9.076,0,6.754,6.754,0,0,0,0,9.2Z" transform="translate(-298.045 -209.778)" fill="#2c2c2c"/>
      <path id="Path_120" data-name="Path 120" d="M491.111,222.42q1.645-3.735,6.184-3.735v4.7a6.427,6.427,0,0,0-4.336,1.185q-1.849,1.345-1.847,4.438v10.12h-4.337v-20.08h4.337Z" transform="translate(-303.204 -209.81)" fill="#2c2c2c"/>
      <path id="Path_121" data-name="Path 121" d="M511.343,239.617a10.292,10.292,0,0,1-7.51-3.052,10.665,10.665,0,0,1,0-15.02,10.79,10.79,0,0,1,15.04,0,10.563,10.563,0,0,1-7.53,18.072Zm-4.457-6.024a6.4,6.4,0,0,0,8.915,0,6.6,6.6,0,0,0,0-9.076,6.4,6.4,0,0,0-8.915,0,6.6,6.6,0,0,0,0,9.076Z" transform="translate(-305.485 -209.778)" fill="#2c2c2c"/>
      <path id="Path_122" data-name="Path 122" d="M530.79,237.394V208.077h4.336v29.317Z" transform="translate(-310.393 -208.077)" fill="#2c2c2c"/>
      <path id="Path_123" data-name="Path 123" d="M557.656,219.015h4.337V239.1h-4.337V236.2a8.125,8.125,0,0,1-7.028,3.414,9.417,9.417,0,0,1-7.068-3.072,11.059,11.059,0,0,1,0-15,9.446,9.446,0,0,1,7.068-3.052,8.158,8.158,0,0,1,7.028,3.373Zm-10.883,14.638a6.549,6.549,0,0,0,9.076,0,6.754,6.754,0,0,0,0-9.2,6.549,6.549,0,0,0-9.076,0,6.754,6.754,0,0,0,0,9.2Z" transform="translate(-312 -209.778)" fill="#2c2c2c"/>
      <path id="Path_124" data-name="Path 124" d="M576.549,222.42q1.647-3.735,6.185-3.735v4.7a6.431,6.431,0,0,0-4.337,1.185q-1.847,1.345-1.847,4.438v10.12h-4.336v-20.08h4.336Z" transform="translate(-317.158 -209.81)" fill="#2c2c2c"/>
    </g>
    <g id="Group_268" data-name="Group 268" transform="translate(216.465 209.123)">
      <path id="Path_125" data-name="Path 125" d="M222.052,214.8a3.644,3.644,0,1,1,3.64,3.64A3.639,3.639,0,0,1,222.052,214.8Z" transform="translate(-221.054 -211.163)" fill="#fff"/>
      <path id="Path_126" data-name="Path 126" d="M237.429,213.769a2.639,2.639,0,0,1-.2,1l-5.966,14.4v2.407a5.2,5.2,0,0,1-10.407,0v-9.328a2.122,2.122,0,0,1,2.121-2.121h6.385l3.045-7.353a2.61,2.61,0,0,1,5.019,1Z" transform="translate(-220.859 -211.163)" fill="#fff"/>
    </g>
    <g id="Group_269" data-name="Group 269" transform="translate(200.46 212.764)">
      <path id="Path_127" data-name="Path 127" d="M216.477,218.637a3.126,3.126,0,1,0-3.122,3.122A3.122,3.122,0,0,0,216.477,218.637Z" transform="translate(-203.117 -215.514)" fill="#e8e8e8"/>
      <path id="Path_128" data-name="Path 128" d="M201.73,217.75a2.27,2.27,0,0,0,.17.857l5.119,12.352v2.065a4.463,4.463,0,0,0,8.926,0v-8a1.82,1.82,0,0,0-1.819-1.82h-5.478l-2.612-6.308a2.239,2.239,0,0,0-4.306.856Z" transform="translate(-201.73 -215.514)" fill="#e8e8e8"/>
    </g>
  </g>
</svg>
